[Header]
FileType HTR
DataType HTRS
FileVersion 1
NumSegments 64
NumFrames 4
DataFrameRate 24
EulerRotationOrder ZYX
CalibrationUnits mm
RotationUnits Degrees
GlobalAxisofGravity Y
BoneLengthAxis Y
ScaleFactor 1.0
[SegmentNames&Hierarchy]
Hips	GLOBAL
Spine	Hips
Spine1	Spine
Spine2	Spine1
Neck	Spine2
Head	Neck
LeftEye	Head
RightEye	Head
LeftShoulder	Spine2
LeftArm	LeftShoulder
LeftForeArm	LeftArm
LeftHand	LeftForeArm
LeftHandThumb1	LeftHand
LeftHandThumb2	LeftHandThumb1
LeftHandThumb3	LeftHandThumb2
LeftHandThumb4	LeftHandThumb3
LeftHandIndex1	LeftHand
LeftHandIndex2	LeftHandIndex1
LeftHandIndex3	LeftHandIndex2
LeftHandIndex4	LeftHandIndex3
LeftHandMiddle1	LeftHand
LeftHandMiddle2	LeftHandMiddle1
LeftHandMiddle3	LeftHandMiddle2
LeftHandMiddle4	LeftHandMiddle3
LeftHandRing1	LeftHand
LeftHandRing2	LeftHandRing1
LeftHandRing3	LeftHandRing2
LeftHandRing4	LeftHandRing3
LeftHandPinky1	LeftHand
LeftHandPinky2	LeftHandPinky1
LeftHandPinky3	LeftHandPinky2
LeftHandPinky4	LeftHandPinky3
RightShoulder	Spine2
RightArm	RightShoulder
RightForeArm	RightArm
RightHand	RightForeArm
RightHandPinky1	RightHand
RightHandPinky2	RightHandPinky1
RightHandPinky3	RightHandPinky2
RightHandPinky4	RightHandPinky3
RightHandRing1	RightHand
RightHandRing2	RightHandRing1
RightHandRing3	RightHandRing2
RightHandRing4	RightHandRing3
RightHandMiddle1	RightHand
RightHandMiddle2	RightHandMiddle1
RightHandMiddle3	RightHandMiddle2
RightHandMiddle4	RightHandMiddle3
RightHandIndex1	RightHand
RightHandIndex2	RightHandIndex1
RightHandIndex3	RightHandIndex2
RightHandIndex4	RightHandIndex3
RightHandThumb1	RightHand
RightHandThumb2	RightHandThumb1
RightHandThumb3	RightHandThumb2
RightHandThumb4	RightHandThumb3
LeftUpLeg	Hips
LeftLeg	LeftUpLeg
LeftFoot	LeftLeg
LeftToeBase	LeftFoot
RightUpLeg	Hips
RightLeg	RightUpLeg
RightFoot	RightLeg
RightToeBase	RightFoot
[BasePosition]
Hips	0	0	0	0	0	0	1
Spine	0	0	0	0	0	0	1
Spine1	0	0	0	0	0	0	1
Spine2	0	0	0	0	0	0	1
Neck	0	0	0	0	0	0	1
Head	0	0	0	0	0	0	1
LeftEye	0	0	0	0	0	0	1
RightEye	0	0	0	0	0	0	1
LeftShoulder	0	0	0	0	0	0	1
LeftArm	0	0	0	0	0	0	1
LeftForeArm	0	0	0	0	0	0	1
LeftHand	0	0	0	0	0	0	1
LeftHandThumb1	0	0	0	0	0	0	1
LeftHandThumb2	0	0	0	0	0	0	1
LeftHandThumb3	0	0	0	0	0	0	1
LeftHandThumb4	0	0	0	0	0	0	1
LeftHandIndex1	0	0	0	0	0	0	1
LeftHandIndex2	0	0	0	0	0	0	1
LeftHandIndex3	0	0	0	0	0	0	1
LeftHandIndex4	0	0	0	0	0	0	1
LeftHandMiddle1	0	0	0	0	0	0	1
LeftHandMiddle2	0	0	0	0	0	0	1
LeftHandMiddle3	0	0	0	0	0	0	1
LeftHandMiddle4	0	0	0	0	0	0	1
LeftHandRing1	0	0	0	0	0	0	1
LeftHandRing2	0	0	0	0	0	0	1
LeftHandRing3	0	0	0	0	0	0	1
LeftHandRing4	0	0	0	0	0	0	1
LeftHandPinky1	0	0	0	0	0	0	1
LeftHandPinky2	0	0	0	0	0	0	1
LeftHandPinky3	0	0	0	0	0	0	1
LeftHandPinky4	0	0	0	0	0	0	1
RightShoulder	0	0	0	0	0	0	1
RightArm	0	0	0	0	0	0	1
RightForeArm	0	0	0	0	0	0	1
RightHand	0	0	0	0	0	0	1
RightHandPinky1	0	0	0	0	0	0	1
RightHandPinky2	0	0	0	0	0	0	1
RightHandPinky3	0	0	0	0	0	0	1
RightHandPinky4	0	0	0	0	0	0	1
RightHandRing1	0	0	0	0	0	0	1
RightHandRing2	0	0	0	0	0	0	1
RightHandRing3	0	0	0	0	0	0	1
RightHandRing4	0	0	0	0	0	0	1
RightHandMiddle1	0	0	0	0	0	0	1
RightHandMiddle2	0	0	0	0	0	0	1
RightHandMiddle3	0	0	0	0	0	0	1
RightHandMiddle4	0	0	0	0	0	0	1
RightHandIndex1	0	0	0	0	0	0	1
RightHandIndex2	0	0	0	0	0	0	1
RightHandIndex3	0	0	0	0	0	0	1
RightHandIndex4	0	0	0	0	0	0	1
RightHandThumb1	0	0	0	0	0	0	1
RightHandThumb2	0	0	0	0	0	0	1
RightHandThumb3	0	0	0	0	0	0	1
RightHandThumb4	0	0	0	0	0	0	1
LeftUpLeg	0	0	0	0	0	0	1
LeftLeg	0	0	0	0	0	0	1
LeftFoot	0	0	0	0	0	0	1
LeftToeBase	0	0	0	0	0	0	1
RightUpLeg	0	0	0	0	0	0	1
RightLeg	0	0	0	0	0	0	1
RightFoot	0	0	0	0	0	0	1
RightToeBase	0	0	0	0	0	0	1
[Hips]
180	-133.8773804	992.9256592	66.70372772	-15.38366413	39.67342377	-370.1916504	1.0
181	-116.3294983	1012.10083	53.61243439	-10.68337917	37.72900009	-364.1740723	1.0
182	-99.29211426	1012.451477	42.93846893	-7.439528942	32.03007126	-362.1523438	1.0
183	-84.01184845	1010.006409	32.78964996	-5.459095001	25.14759636	-361.9605103	1.0
[Spine]
180	0	101.8159943	1.315000057	19.60255623	-13.23838139	0.4179060161	1.0
181	0	101.8159943	1.315000057	20.50442314	-19.05029678	-7.091544151	1.0
182	0	101.8159943	1.315000057	19.44427109	-24.15233994	-10.18245029	1.0
183	0	101.8159943	1.315000057	18.3765316	-28.3687458	-12.68185806	1.0
[Spine1]
180	0	100.8349991	-10.00800037	0.492292881	-2.279765606	7.552416801	1.0
181	0	100.8349991	-10.00800037	0.5303528905	-3.148502588	6.130178928	1.0
182	0	100.8349991	-10.00800037	0.9138851762	-3.807874918	4.812042236	1.0
183	0	100.8349991	-10.00800037	1.365638256	-4.355731964	3.749819756	1.0
[Spine2]
180	0	91	-13.73399925	0.7216763496	-2.053795576	7.595547676	1.0
181	0	91	-13.73399925	0.8154944181	-2.971898556	6.179738522	1.0
182	0	91	-13.73399925	1.198487163	-3.675777435	4.835413456	1.0
183	0	91	-13.73399925	1.648499608	-4.257334709	3.739721537	1.0
[Neck]
180	0	166.7169952	-25.16200066	-6.029482841	-3.494796276	-2.510172844	1.0
181	0	166.7169952	-25.16200066	-4.556942463	-2.965060472	-0.481095612	1.0
182	0	166.7169952	-25.16200066	-3.652257204	-2.541719437	0.9781557322	1.0
183	0	166.7169952	-25.16200066	-3.124355316	-2.282868147	2.112462282	1.0
[Head]
180	0	96.17900085	16.84999847	-15.62725067	-19.12227058	5.994988441	1.0
181	0	96.17900085	16.84999847	-12.2226305	-15.29349613	8.285086632	1.0
182	0	96.17900085	16.84999847	-9.126211166	-12.18954468	9.472213745	1.0
183	0	96.17900085	16.84999847	-6.10005331	-10.11280537	10.36452484	1.0
[LeftEye]
180	30.6760006	64.09500122	92.83599854	0	0	0	1.0
181	30.6760006	64.09500122	92.83599854	0	0	0	1.0
182	30.6760006	64.09500122	92.83599854	0	0	0	1.0
183	30.6760006	64.09500122	92.83599854	0	0	0	1.0
[RightEye]
180	-30.6760006	64.09500122	92.83499908	0	0	0	1.0
181	-30.6760006	64.09500122	92.83499908	0	0	0	1.0
182	-30.6760006	64.09500122	92.83499908	0	0	0	1.0
183	-30.6760006	64.09500122	92.83499908	0	0	0	1.0
[LeftShoulder]
180	45.70400238	109.4599991	-26.28000069	1.680948615	-5.941354275	-10.5442152	1.0
181	45.70400238	109.4599991	-26.28000069	2.151819468	-7.974254131	-11.59996319	1.0
182	45.70400238	109.4599991	-26.28000069	2.157995701	-7.687810898	-12.24067497	1.0
183	45.70400238	109.4599991	-26.28000069	2.045916557	-7.035696507	-12.33587456	1.0
[LeftArm]
180	105.923996	-5.24600029	-22.32099915	3.779643774	-19.7299099	-4.50666523	1.0
181	105.923996	-5.24600029	-22.32099915	7.193899632	-23.20720673	-4.536019325	1.0
182	105.923996	-5.24600029	-22.32099915	7.048938751	-26.29006195	-4.595419407	1.0
183	105.923996	-5.24600029	-22.32099915	6.676641464	-29.56082726	-5.730953693	1.0
[LeftForeArm]
180	278.414978	-0.0009999999311	0	2.861475119e-11	-100.8839264	-0.0002136230032	1.0
181	278.414978	-0.0009999999311	0	0	-109.0654678	-0.0002136230469	1.0
182	278.414978	-0.0009999999311	0	8.900943612e-06	-113.1640396	-0.0002148946078	1.0
183	278.414978	-0.0009999999311	0	1.525878906e-05	-114.4634323	-0.0002136230469	1.0
[LeftHand]
180	283.2879944	0	0	32.24031067	-8.611093521	19.73895264	1.0
181	283.2879944	0	0	33.35816574	-4.934306145	19.47566605	1.0
182	283.2879944	0	0	35.3900528	-1.338875532	19.43460083	1.0
183	283.2879944	0	0	37.28423309	1.727956295	19.67306519	1.0
[LeftHandThumb1]
180	24.6609993	-15.75	26.8239994	-26.22431183	13.90385723	21.16506767	1.0
181	24.6609993	-15.75	26.8239994	-26.9402504	13.90118027	20.39752007	1.0
182	24.6609993	-15.75	26.8239994	-22.66121674	12.57339096	19.70806503	1.0
183	24.6609993	-15.75	26.8239994	-17.19649506	10.87513351	18.9906826	1.0
[LeftHandThumb2]
180	32.29800034	-18.64699936	18.64699936	3.655650854	-0.002036538906	0.04077543318	1.0
181	32.29800034	-18.64699936	18.64699936	3.677067041	0.1389543414	0.1116139963	1.0
182	32.29800034	-18.64699936	18.64699936	2.929189205	-0.2448274642	-0.21539554	1.0
183	32.29800034	-18.64699936	18.64699936	2.076425791	-0.6136741638	-0.5791625977	1.0
[LeftHandThumb3]
180	26.52600098	-15.31499958	15.31499958	0.151985392	3.115765572	2.743109465	1.0
181	26.52600098	-15.31499958	15.31499958	0.335010767	3.532303572	2.671896696	1.0
182	26.52600098	-15.31499958	15.31499958	-0.1520445645	2.764345407	2.655250072	1.0
183	26.52600098	-15.31499958	15.31499958	-0.8252263069	1.652979136	2.674545288	1.0
[LeftHandThumb4]
180	19.54599953	-11.28499985	11.28499985	0	0	0	1.0
181	19.54599953	-11.28499985	11.28499985	0	0	0	1.0
182	19.54599953	-11.28499985	11.28499985	0	0	0	1.0
183	19.54599953	-11.28499985	11.28499985	0	0	0	1.0
[LeftHandIndex1]
180	91.09299469	-5.170999527	22.60099792	-0.6075545549	-12.25376034	25.83449173	1.0
181	91.09299469	-5.170999527	22.60099792	-0.472720325	-12.56780529	23.3816433	1.0
182	91.09299469	-5.170999527	22.60099792	-0.3774739504	-12.63387585	21.41717148	1.0
183	91.09299469	-5.170999527	22.60099792	-0.3058626652	-12.54082966	19.8392601	1.0
[LeftHandIndex2]
180	36.76399994	0	0	-0.004129245877	0.2382299304	-1.982150078	1.0
181	36.76399994	0	0	-0.00454037264	0.250231564	-2.081882954	1.0
182	36.76399994	0	0	-0.003093072446	0.2015694678	-1.676935554	1.0
183	36.76399994	0	0	-0.001389193349	0.1380288303	-1.148229241	1.0
[LeftHandIndex3]
180	28.83100128	0	0	-0.06629250199	0.9532334805	-7.95507288	1.0
181	28.83100128	0	0	-0.06797231734	0.9652658105	-8.056186676	1.0
182	28.83100128	0	0	-0.0656825453	0.9488483071	-7.918313026	1.0
183	28.83100128	0	0	-0.06242306158	0.9252416492	-7.720080376	1.0
[LeftHandIndex4]
180	23.92700005	0	0	0	0	0	1.0
181	23.92700005	0	0	0	0	0	1.0
182	23.92700005	0	0	0	0	0	1.0
183	23.92700005	0	0	0	0	0	1.0
[LeftHandMiddle1]
180	95.33399963	0	0	-0.889357388	-2.197502136	27.89804459	1.0
181	95.33399963	0	0	-0.8149654865	-3.21646452	26.42888069	1.0
182	95.33399963	0	0	-0.5357707739	-3.397404671	21.15455437	1.0
183	95.33399963	0	0	-0.2659093142	-3.309732914	16.02534294	1.0
[LeftHandMiddle2]
180	36.98199844	0	0	-0.06893839687	0.9721156359	-8.113637924	1.0
181	36.98199844	0	0	-0.09749215841	1.154669642	-9.651364326	1.0
182	36.98199844	0	0	-0.05112387985	0.5925140381	-4.953730106	1.0
183	36.98199844	0	0	2.898251296e-06	-6.560031034e-05	0.0001619543764	1.0
[LeftHandMiddle3]
180	29.50900078	0	0	-0.01820072904	0.5003333092	-4.165509224	1.0
181	29.50900078	0	0	-0.01606687345	0.4700818658	-3.913141727	1.0
182	29.50900078	0	0	-0.02602552623	0.5858089924	-4.879484177	1.0
183	29.50900078	0	0	-0.03622097522	0.7054235935	-5.878246307	1.0
[LeftHandMiddle4]
180	28.3390007	0	0	0	0	0	1.0
181	28.3390007	0	0	0	0	0	1.0
182	28.3390007	0	0	0	0	0	1.0
183	28.3390007	0	0	0	0	0	1.0
[LeftHandRing1]
180	91.04499817	-0.4390000105	-18.65100098	-1.013428211	3.387842894	30.27433205	1.0
181	91.04499817	-0.4390000105	-18.65100098	-0.9710473418	2.712536812	29.59580994	1.0
182	91.04499817	-0.4390000105	-18.65100098	-0.6823859811	2.040076017	24.7455864	1.0
183	91.04499817	-0.4390000105	-18.65100098	-0.3917479515	1.658266902	19.81441879	1.0
[LeftHandRing2]
180	31.54000092	0	0	-0.06672027707	0.9563326836	-7.981061459	1.0
181	31.54000092	0	0	-0.08370921761	1.070540309	-8.94185257	1.0
182	31.54000092	0	0	-0.04327183217	0.5447815657	-4.551001549	1.0
183	31.54000092	0	0	-2.242116352e-06	-1.051833169e-05	-8.181159501e-06	1.0
[LeftHandRing3]
180	29.37700081	0	0	-0.01606573351	0.4701807201	-3.914088488	1.0
181	29.37700081	0	0	-0.01510570943	0.4559105635	-3.795127153	1.0
182	29.37700081	0	0	-0.02347528934	0.5583713055	-4.650326729	1.0
183	29.37700081	0	0	-0.03204829246	0.6636630893	-5.52913332	1.0
[LeftHandRing4]
180	26.47500038	0	0	0	0	0	1.0
181	26.47500038	0	0	0	0	0	1.0
182	26.47500038	0	0	0	0	0	1.0
183	26.47500038	0	0	0	0	0	1.0
[LeftHandPinky1]
180	80.77799988	-4.887000084	-38.06099701	-1.073008418	5.041674614	33.5108223	1.0
181	80.77799988	-4.887000084	-38.06099701	-1.05545795	6.671318531	33.67697144	1.0
182	80.77799988	-4.887000084	-38.06099701	-0.9776254892	9.334909439	33.45441437	1.0
183	80.77799988	-4.887000084	-38.06099701	-0.8736699224	11.99210358	32.87267303	1.0
[LeftHandPinky2]
180	36	0	0	0.01662278548	-4.056889057	-0.4893304408	1.0
181	36	0	0	0.01661096141	-4.056904793	-0.4891326725	1.0
182	36	0	0	0.01660894789	-4.056904316	-0.4891172945	1.0
183	36	0	0	0.01660780422	-4.056900978	-0.4891355932	1.0
[LeftHandPinky3]
180	21.14200211	0	0	-0.01621551253	0.47231251	-3.931763887	1.0
181	21.14200211	0	0	-0.01669895463	0.4793029428	-3.99009943	1.0
182	21.14200211	0	0	-0.01723635569	0.4869240224	-4.053657532	1.0
183	21.14200211	0	0	-0.01777423359	0.4945033789	-4.116868496	1.0
[LeftHandPinky4]
180	19.75699997	0	0	0	0	0	1.0
181	19.75699997	0	0	0	0	0	1.0
182	19.75699997	0	0	0	0	0	1.0
183	19.75699997	0	0	0	0	0	1.0
[RightShoulder]
180	-45.70000076	109.4620056	-26.28000069	-1.062648535	-6.813996315	25.80521011	1.0
181	-45.70000076	109.4620056	-26.28000069	-0.9380940795	-6.738991261	22.56225777	1.0
182	-45.70000076	109.4620056	-26.28000069	-0.4521011114	-5.028971672	15.17658234	1.0
183	-45.70000076	109.4620056	-26.28000069	-0.02737194858	-3.68267107	7.682329655	1.0
[RightArm]
180	-105.9280014	-5.248000145	-22.32099915	26.74636841	-12.41425514	27.4267025	1.0
181	-105.9280014	-5.248000145	-22.32099915	7.448820591	-28.99505997	29.06383896	1.0
182	-105.9280014	-5.248000145	-22.32099915	2.088423729	-35.03005219	25.11384583	1.0
183	-105.9280014	-5.248000145	-22.32099915	-1.757209659	-37.15520096	20.58514977	1.0
[RightForeArm]
180	-278.414978	0	0	-3.653891326e-05	24.58152008	-2.611717355e-05	1.0
181	-278.414978	0	0	4.620036179e-06	35.71866226	2.108106173e-06	1.0
182	-278.414978	0	0	4.903475656e-06	47.37356186	4.886076567e-06	1.0
183	-278.414978	0	0	-1.348387855e-06	58.88371277	2.525663604e-06	1.0
[RightHand]
180	-283.2879944	0	0.0009999999311	-8.057918549	4.040742874	-12.00225163	1.0
181	-283.2879944	0	0.0009999999311	-5.391610146	0.6869883537	-15.00304413	1.0
182	-283.2879944	0	0.0009999999311	-1.508857727	-0.3255405426	-17.12966537	1.0
183	-283.2879944	0	0.0009999999311	2.621614218	-0.7960886359	-18.66931725	1.0
[RightHandPinky1]
180	-80.76699829	-4.885000229	-38.06000137	0.3478177786	-18.00072289	0.7874289155	1.0
181	-80.76699829	-4.885000229	-38.06000137	0.2728012204	-16.94739532	-8.370332718	1.0
182	-80.76699829	-4.885000229	-38.06000137	0.193490833	-16.56149101	-12.15044498	1.0
183	-80.76699829	-4.885000229	-38.06000137	0.1336459368	-16.35719299	-14.13090324	1.0
[RightHandPinky2]
180	-36	0	0.0009999999311	-1.00824213	-3.603728533	31.26487732	1.0
181	-36	0	0.0009999999311	-0.6452542543	-2.924080372	24.89612389	1.0
182	-36	0	0.0009999999311	-0.364720881	-2.118309498	17.83738518	1.0
183	-36	0	0.0009999999311	-0.1322393417	-1.349688768	11.20433331	1.0
[RightHandPinky3]
180	-21.14200211	0	0	-0.111420773	-1.239866018	10.27000713	1.0
181	-21.14200211	0	0	-0.08843789995	-1.105564594	9.147089958	1.0
182	-21.14200211	0	0	-0.04334974289	-0.6708892584	5.545208931	1.0
183	-21.14200211	0	0	-0.002464391524	-0.1851376742	1.525240541	1.0
[RightHandPinky4]
180	-19.75699997	0	0	0	0	0	1.0
181	-19.75699997	0	0	0	0	0	1.0
182	-19.75699997	0	0	0	0	0	1.0
183	-19.75699997	0	0	0	0	0	1.0
[RightHandRing1]
180	-91.03599548	-0.4390000105	-18.65100098	-0.0291781351	-4.714668751	-7.678888798	1.0
181	-91.03599548	-0.4390000105	-18.65100098	-0.143867135	-4.273292542	-12.99917507	1.0
182	-91.03599548	-0.4390000105	-18.65100098	-0.179372102	-4.703377724	-14.60367775	1.0
183	-91.03599548	-0.4390000105	-18.65100098	-0.1849614084	-5.367660999	-15.02359962	1.0
[RightHandRing2]
180	-31.54000092	0	0	-0.05752721429	-0.8926769495	7.374405861	1.0
181	-31.54000092	0	0	-0.01522329263	-0.4599452317	3.791675568	1.0
182	-31.54000092	0	0	-0.004086389206	-0.1939115971	1.597276211	1.0
183	-31.54000092	0	0	0	0	-1.416340732e-15	1.0
[RightHandRing3]
180	-29.37700081	0	0	-3.56297493	-0.9169920087	7.576877117	1.0
181	-29.37700081	0	0	-3.625756741	-0.6814785004	5.62101078	1.0
182	-29.37700081	0	0	-3.06332159	-0.2524198592	2.076828003	1.0
183	-29.37700081	0	0	-2.308156729	0.183058247	-1.516969442	1.0
[RightHandRing4]
180	-26.47500038	0	0	0	0	0	1.0
181	-26.47500038	0	0	0	0	0	1.0
182	-26.47500038	0	0	0	0	0	1.0
183	-26.47500038	0	0	0	0	0	1.0
[RightHandMiddle1]
180	-95.32500458	0	0	-0.2460475564	7.416320801	-16.20918274	1.0
181	-95.32500458	0	0	-0.3687008023	7.401227474	-19.38063431	1.0
182	-95.32500458	0	0	-0.3687529266	6.053062916	-19.18073273	1.0
183	-95.32500458	0	0	-0.333817631	4.346645355	-18.00712013	1.0
[RightHandMiddle2]
180	-36.98199844	0	0	-1.523656647e-05	-0.01627344638	0.1340041459	1.0
181	-36.98199844	0	0	-7.062250159e-31	-1.638132744e-06	2.797933973e-07	1.0
182	-36.98199844	0	0	1.266033905e-06	0.001355480868	-0.01114723086	1.0
183	-36.98199844	0	0	-7.519541612e-08	5.608332003e-07	4.215652734e-05	1.0
[RightHandMiddle3]
180	-29.50900078	0	0	-1.985303044	-0.4455250502	3.656702995	1.0
181	-29.50900078	0	0	-2.113615036	-0.1622513533	1.319905758	1.0
182	-29.50900078	0	0	-1.864934683	0.2192559689	-1.827735662	1.0
183	-29.50900078	0	0	-1.455262184	0.5661017299	-4.688896179	1.0
[RightHandMiddle4]
180	-28.3390007	0	0.0009999999311	0	0	0	1.0
181	-28.3390007	0	0.0009999999311	0	0	0	1.0
182	-28.3390007	0	0.0009999999311	0	0	0	1.0
183	-28.3390007	0	0.0009999999311	0	0	0	1.0
[RightHandIndex1]
180	-91.08300018	-5.167999744	22.60099792	-0.2210899889	20.35313797	-22.62692833	1.0
181	-91.08300018	-5.167999744	22.60099792	-0.3061566353	19.83838463	-23.85927773	1.0
182	-91.08300018	-5.167999744	22.60099792	-0.2729317546	17.26765823	-21.6661377	1.0
183	-91.08300018	-5.167999744	22.60099792	-0.2145549059	14.14513874	-18.60776711	1.0
[RightHandIndex2]
180	-36.76399994	0	0	-0.0009937973227	-0.1173990369	0.9672111869	1.0
181	-36.76399994	0	0	-3.474229118e-07	-1.810104209e-06	3.605960956e-05	1.0
182	-36.76399994	0	0	8.247289952e-05	0.00978406053	-0.080536291	1.0
183	-36.76399994	0	0	-3.377327573e-07	2.240566801e-06	7.87485842e-05	1.0
[RightHandIndex3]
180	-28.83100128	0	0	-0.00508503383	-0.2660213709	2.191892147	1.0
181	-28.83100128	0	0	-0.0004741470329	0.08109268546	-0.6680713892	1.0
182	-28.83100128	0	0	-0.02424983308	0.4807060957	-3.968112469	1.0
183	-28.83100128	0	0	-0.04832256958	0.8184283972	-6.757980824	1.0
[RightHandIndex4]
180	-23.92700005	0	0	0	0	0	1.0
181	-23.92700005	0	0	0	0	0	1.0
182	-23.92700005	0	0	0	0	0	1.0
183	-23.92700005	0	0	0	0	0	1.0
[RightHandThumb1]
180	-24.64799881	-15.72700024	26.82600021	-9.808918953	-9.284190178	-15.58515167	1.0
181	-24.64799881	-15.72700024	26.82600021	-8.278746605	-9.631555557	-15.86539364	1.0
182	-24.64799881	-15.72700024	26.82600021	-5.810867786	-10.09982491	-15.97533798	1.0
183	-24.64799881	-15.72700024	26.82600021	-3.225337505	-10.56153774	-15.96820545	1.0
[RightHandThumb2]
180	-32.29800034	-18.64699936	18.64699936	9.484224319	-23.09659576	-3.651972771	1.0
181	-32.29800034	-18.64699936	18.64699936	7.215362549	-17.08057976	-1.726722836	1.0
182	-32.29800034	-18.64699936	18.64699936	4.890018463	-9.604503632	-0.05823296309	1.0
183	-32.29800034	-18.64699936	18.64699936	2.814178467	-2.619452	1.286956787	1.0
[RightHandThumb3]
180	-26.52600098	-15.31399918	15.31399918	5.596871853	-13.02127171	-4.688603401	1.0
181	-26.52600098	-15.31399918	15.31399918	2.706940889	-8.137764931	-3.682452202	1.0
182	-26.52600098	-15.31399918	15.31399918	-0.6646672487	-2.03922224	-3.310345173	1.0
183	-26.52600098	-15.31399918	15.31399918	-3.891257048	3.856773376	-3.173413754	1.0
[RightHandThumb4]
180	-19.54599953	-11.28499985	11.28499985	0	0	0	1.0
181	-19.54599953	-11.28499985	11.28499985	0	0	0	1.0
182	-19.54599953	-11.28499985	11.28499985	0	0	0	1.0
183	-19.54599953	-11.28499985	11.28499985	0	0	0	1.0
[LeftUpLeg]
180	82.07800293	-67.51699829	-15.99599934	-19.6994915	13.58554745	15.22046089	1.0
181	82.07800293	-67.51699829	-15.99599934	-7.146858692	5.699757099	7.959917545	1.0
182	82.07800293	-67.51699829	-15.99599934	-1.45195365	2.934574842	3.470169067	1.0
183	82.07800293	-67.51699829	-15.99599934	1.600794792	1.625998259	0.06446947157	1.0
[LeftLeg]
180	0	-443.7049866	2.845999956	67.21630859	10.03764915	2.788531542	1.0
181	0	-443.7049866	2.845999956	47.52001572	12.08810616	1.827015758	1.0
182	0	-443.7049866	2.845999956	35.22280884	12.73709869	-0.3618236184	1.0
183	0	-443.7049866	2.845999956	26.74983215	12.75102806	-2.758332729	1.0
[LeftFoot]
180	0	-444.2789917	-29.8219986	6.473315716	2.049016237	10.18468952	1.0
181	0	-444.2789917	-29.8219986	1.386723757	2.524713755	2.586395979	1.0
182	0	-444.2789917	-29.8219986	-7.173491478	7.942015171	0.1218474507	1.0
183	0	-444.2789917	-29.8219986	-13.92190552	14.26776218	-1.076373458	1.0
[LeftToeBase]
180	0	-87.28699493	107.1060028	-10.49594593	-0.4237681925	-2.714038372	1.0
181	0	-87.28699493	107.1060028	-21.69052887	-1.676968694	-4.949311733	1.0
182	0	-87.28699493	107.1060028	-17.47065353	-0.9443254471	-2.665410995	1.0
183	0	-87.28699493	107.1060028	-12.48037148	-9.781296285e-06	4.390890354e-07	1.0
[RightUpLeg]
180	-82.07800293	-67.51699829	-15.99599934	-6.200438976	8.616740227	5.128691196	1.0
181	-82.07800293	-67.51699829	-15.99599934	-10.89644527	10.43446922	-0.5793312192	1.0
182	-82.07800293	-67.51699829	-15.99599934	-14.19531536	7.61431694	0.346124351	1.0
183	-82.07800293	-67.51699829	-15.99599934	-16.8344593	5.703121185	2.219937086	1.0
[RightLeg]
180	0	-443.7049866	2.861999989	37.25740051	-9.000105858	-4.606869698	1.0
181	0	-443.7049866	2.861999989	41.20111847	-9.686995506	-4.093106747	1.0
182	0	-443.7049866	2.861999989	36.88234711	-7.412446499	-4.720600128	1.0
183	0	-443.7049866	2.861999989	31.39997101	-5.115940094	-5.361522675	1.0
[RightFoot]
180	0	-444.2770081	-29.83799934	-14.71830082	-4.854698658	17.58381653	1.0
181	0	-444.2770081	-29.83799934	-7.405638218	-9.985902786	11.92503738	1.0
182	0	-444.2770081	-29.83799934	-12.03047943	-5.015233994	10.75967979	1.0
183	0	-444.2770081	-29.83799934	-17.90091705	0.5081662536	9.496087074	1.0
[RightToeBase]
180	0	-87.28699493	107.1060028	-6.482812405	-0.2043634951	-2.262352943	1.0
181	0	-87.28699493	107.1060028	-3.763489723	-0.03997763246	-1.395880342	1.0
182	0	-87.28699493	107.1060028	0.9246286154	-0.006291233003	-0.6257326007	1.0
183	0	-87.28699493	107.1060028	5.119564056	-2.279309911e-06	3.165278486e-06	1.0
[EndOfFile]
